<?xml version="1.0" encoding="utf-8"?>
<!-- Generator: Adobe Illustrator 19.0.0, SVG Export Plug-In . SVG Version: 6.00 Build 0)  -->
<svg version="1.1" id="图层_1" xmlns="http://www.w3.org/2000/svg" xmlns:xlink="http://www.w3.org/1999/xlink" x="0px" y="0px"
	 viewBox="-265 380.9 64 80" style="enable-background:new -265 380.9 64 80;" xml:space="preserve">
<g>
	<path d="M-204,432.9c-1.8-1.8-3.6-3.7-5.4-5.5c-0.8-0.8-1.5-1.6-2.3-2.3c-0.7-0.7-1.4-1.4-2.1-2.1c-0.6-0.6-1.1-1.1-1.7-1.7
		l-0.6-0.6l0.5-0.7c2.4-3.2,3.9-6.9,4.3-10.9c-1.3-0.4-2.9-1-4.5-1.5c0,0,0,0.1,0,0.1c-0.5,9.2-8.1,16.4-17.4,16.4
		c-0.2,0-0.5,0-0.7,0c-8-0.5-14.5-6.5-15.8-14.2c-0.2-0.9-0.2-1.9-0.2-2.9c0-2.5,0.5-4.8,1.5-6.9c2.7-6,8.7-10.2,15.7-10.2
		c6.2,0,11.8,3.3,14.8,8.5c1.2,0.4,2.4,0.8,3.6,1.2l0.1,0c0.7,0.2,1.4,0.5,2.1,0.7c-2.9-8.8-11.1-15-20.6-15c-2.6,0-5.1,0.4-7.4,1.3
		c-5.1,1.9-9.3,5.6-11.7,10.3c-1.4,2.6-2.3,5.6-2.5,8.7c0,0.5,0,0.9,0,1.4c0,10.6,7.6,19.6,18.1,21.4l1.5,0.2c0.3,0,0.7,0.1,1,0.1
		c0.9,0,1.8,0,2.7-0.1l0.4,0c3-0.3,5.9-1.2,8.5-2.6l0.7-0.4l0.5,0.7c2.1,2.7,4.2,5.4,6.4,8.2c1.3,1.6,2.5,3.2,3.8,4.8
		c0.7,0.9,1.6,1.3,2.8,1.4c0.1,0,0.2,0,0.2,0c0.7,0,1.4-0.3,2.1-0.8c0.5-0.4,1-0.9,1.5-1.3l0.3-0.2c0.8-0.7,1.3-1.6,1.3-2.6
		C-202.8,434.6-203.2,433.6-204,432.9z"/>
	<path d="M-201.8,405.2c-0.7-1.2-1.8-1.9-3.1-1.9c-0.2,0-0.4,0-0.6,0.1c-0.7,0.1-1.4,0.4-1.9,0.9l-1-0.3c-1.4-0.5-3.9-1.3-6.6-2.2
		c-1.6-0.5-3.2-1.1-4.7-1.6c-1.5-0.5-2.9-1-3.8-1.3c-0.2-1.4-1.3-2.6-2.7-3c-0.6-0.2-1.1-0.2-1.7-0.1c-0.9,0.2-1.7,0.6-2.2,1.4
		c-1,1.3-1.1,2.7-0.4,4c-0.4,0.6-0.5,0.8-0.7,1.1c-0.2,0.3-0.3,0.6-0.8,1.2l-1.9,2.8c-1.2,1.7-2.4,3.6-3.7,5.3
		c-0.6-0.1-1.1,0-1.7,0.2l-8.1-7.4c-0.2,0.9-0.2,1.8-0.2,2.7c0,0.6,0,1.3,0.1,1.9l5.9,5.4c-0.1,0.4-0.2,0.9-0.1,1.4
		c0.1,1.5,1.3,2.8,2.8,3.1c0.3,0.1,0.6,0.1,0.9,0.1c0.2,0,0.4,0,0.6-0.1c0.9-0.2,1.7-0.7,2.3-1.5c0.9-1.2,1-2.6,0.3-3.9
		c1.2-1.7,2.3-3.4,3.5-5l0.8-1.2c0.7-1,1.1-1.6,1.5-2.2c0.4-0.6,0.7-1.1,1.3-2c1.1,0.1,2.1-0.2,2.9-1l0.9,0.3
		c1.2,0.4,3.3,1.1,5.6,1.9c0.3,0.1,0.6,0.2,0.9,0.3c3.3,1.1,6.7,2.2,8.5,2.9c0,0.1,0,0.1,0,0.2c0.3,1.3,1.3,2.3,2.5,2.7
		c0.4,0.1,0.8,0.2,1.2,0.2h0c0.2,0,0.4,0,0.6-0.1c0.8-0.2,1.6-0.6,2.1-1.3C-201.2,408.1-201,406.5-201.8,405.2z M-237.6,417.1
		c-0.1,0-0.3,0-0.4,0c-0.9,0-1.7-0.6-1.9-1.6c-0.1-0.6,0-1.1,0.3-1.5c0.3-0.4,0.8-0.7,1.3-0.8c1.1-0.2,2.1,0.5,2.3,1.6
		C-235.8,415.9-236.5,416.9-237.6,417.1z M-226.9,401.3c-0.1,0-0.2,0-0.3,0c-1,0-1.8-0.7-1.9-1.7c-0.2-1.1,0.5-2.1,1.6-2.3
		c0.1,0,0.3,0,0.4,0c1,0,1.7,0.7,1.9,1.7C-225.1,400.2-225.8,401.1-226.9,401.3z M-204.7,408.9c-0.1,0-0.3,0-0.4,0
		c-1,0-1.7-0.7-1.9-1.7c-0.2-1.1,0.5-2.1,1.6-2.3c0.1,0,0.3,0,0.4,0c1,0,1.7,0.6,1.9,1.6C-202.9,407.7-203.5,408.7-204.7,408.9z
		 M-259,391.1c-0.8-0.5-1.8-0.7-2.6-0.6c-0.7,0.1-1.4,0.5-2,1.1c-1.2,1.3-1.4,3.2-0.4,4.6c0.9,1.3,2.2,1.8,3.7,1.5
		c0.2,0,0.4-0.1,0.5-0.1l3.6,3.2c0.3-1.2,0.7-2.4,1.2-3.6l-2.5-2.2C-257,393.4-257.5,392-259,391.1z M-260.5,396.1
		c-0.2,0-0.3,0.1-0.5,0.1c-1,0-1.7-0.6-1.9-1.6c-0.2-1.1,0.4-2.1,1.6-2.3c0.1,0,0.3,0,0.4,0c0.9,0,1.7,0.6,1.9,1.6
		C-258.8,394.9-259.4,395.9-260.5,396.1z"/>
</g>
</svg>
